<?xml version="1.0" standalone="no"?>
<!DOCTYPE svg PUBLIC "-//W3C//DTD SVG 20010904//EN"
 "http://www.w3.org/TR/2001/REC-SVG-20010904/DTD/svg10.dtd">
<svg version="1.0" xmlns="http://www.w3.org/2000/svg"
 width="512.000000pt" height="512.000000pt" viewBox="0 0 512.000000 512.000000"
 preserveAspectRatio="xMidYMid meet">
<metadata>
Created by potrace 1.14, written by Peter Selinger 2001-2017
</metadata>
<g transform="translate(0.000000,512.000000) scale(0.100000,-0.100000)"
fill="#000000" stroke="none">
<path d="M0 2560 l0 -2560 2560 0 2560 0 0 2560 0 2560 -2560 0 -2560 0 0
-2560z m1375 1810 c171 -65 288 -210 317 -394 13 -86 -5 -197 -49 -285 -35
-73 -141 -179 -214 -214 -88 -44 -199 -62 -285 -49 -235 37 -405 219 -421 453
-16 227 129 435 350 500 84 25 219 20 302 -11z m2093 16 c47 -25 580 -568 588
-599 19 -78 -20 -155 -91 -182 -82 -32 -102 -21 -262 138 l-143 141 0 -210 0
-209 236 -235 c130 -129 242 -249 250 -267 55 -127 -63 -251 -193 -203 -15 6
-88 70 -160 143 l-133 132 0 -389 0 -388 417 -667 418 -666 0 -55 c0 -65 -26
-109 -79 -134 -31 -15 -188 -16 -1756 -16 -1568 0 -1725 1 -1756 16 -53 25
-79 69 -79 134 l0 55 429 685 c235 377 443 701 462 720 l34 35 800 3 800 2 0
333 0 332 -132 -132 c-73 -73 -146 -137 -161 -143 -130 -48 -248 76 -193 203
8 18 120 138 250 267 l236 235 0 209 0 210 -142 -141 c-161 -159 -181 -170
-263 -138 -71 27 -110 104 -91 182 8 30 525 559 581 594 36 22 95 25 133 5z"/>
<path d="M1135 4081 c-98 -45 -139 -151 -96 -247 29 -64 80 -97 157 -102 54
-4 70 -1 106 21 64 37 91 92 86 172 -3 50 -10 70 -32 100 -53 69 -143 92 -221
56z"/>
<path d="M2336 2058 c4 -7 151 -244 327 -526 l319 -512 499 0 498 0 -327 525
-327 524 -498 1 c-396 0 -497 -3 -491 -12z"/>
<path d="M1432 1485 l-291 -465 295 0 294 0 0 465 c0 256 -2 465 -4 465 -2 0
-134 -209 -294 -465z"/>
<path d="M2040 1487 l0 -467 290 0 c160 0 290 2 290 5 0 5 -537 867 -566 910
-12 16 -14 -51 -14 -448z"/>
</g>
</svg>
