<svg xmlns="http://www.w3.org/2000/svg" viewBox="0 0 512 512">
<style>
    .theme-rose .box { fill:#e11d48 }
    .theme-blue .box { fill:#blue }
   
  </style>
  <path d="M0 0h512v512H0z" class="box"/><path d="M249.75 512H139.18l-17.51-71.22-33.24-5.63-17.88 26.82 27.32 25.2 9.7 24.83H14.59l2.34-29.95s32.64-3.01 63.06-63.57c29.13 9.84 71.31 9.14 103.04 3.31l-4.12 7.14-37.55 11.14c31.33 2.81 58.74-2.31 79.03-8.53-3.41-15.17-4.52-31.64 3.52-53.03L249.75 512ZM316.2 211.9h-15.57c4.22-3.01 15.37-9.74 30.33-9.64 12.45 1.41 21.99 4.32 30.33 9.64h-15.97c-1.61 4.83-7.53 8.44-14.56 8.44s-12.96-3.61-14.56-8.44ZM106.52 255.34l.13.2a215.92 215.92 0 0 0-30.93 12.18l-1.02-7.73s12.42-3.85 19.25-29.83c12.11 1.42 28.41-2.31 40.25-7.17l-1.01 3.1-13.66 7.41c12.39-1.48 22.6-5.72 29.96-9.8-2.57-5.6-4.35-11.9-2.99-20.86l18.29 43.3c-15.95.38-30.91 2.45-44.87 5.78l-7.97-16.54-13.36.55-4.73 11.87 12.66 7.54ZM174.98 132.71c-2.73.58-5.32-.34-6.34-2.07l-6.04 1.27c1.39-1.51 5.16-5.04 10.97-6.23 4.95-.47 8.89-.12 12.56 1.26l-6.19 1.31c-.23 2-2.23 3.89-4.96 4.46Z"/><path d="M0 0v325.04c15.05-16.5 36.38-35.81 63.97-51.21l-6.59-19.13s15.92-15.17-9.75-38.19c0 0 22.01-68.03 96.02-62.36a25.4 25.4 0 0 0 3.22-2.51l-13.32-1.17c12.06-1.49 17.74-14.86 19.9-21.79-6.96-3.09-7.73-7.69-5.39-10.26.8-.87 1.92-1.52 3.28-1.8 3.04-.66 7.25.37 11.37 4.48 25.53-10.36 41.89-10.97 48.98-4 .87.87 1.61 1.85 2.22 3.02-8.8-.25-14.37 5.93-14.37 5.93l3.18 5.64 4.05-1.06c-3.6-4.9 4.4-7.48 5.74-1.54l3.72-1.11c.86 5.84.5 12.79-.16 19.28-.23 2.17-1.53 4.11-3.46 5.21-7.66 4.19-16.28 6.91-25.56 7.28 10.43 30.48-3.47 39.81-3.47 39.81l2.18-9.9-1.69-4.16c-.74 3.65-1.85 6.86-3.16 10.31-6.41 20.07-4.92 39.67-3.25 50.38 3.34.11 6.73.29 10.15.56-5.38-10.2-7.99-21.65-6.19-35.1 0 0 7.23-2.95 10.66-16.01-.43 23.13 1.86 36.18 6.56 52.2 13.84 1.68 28.32 4.63 43.44 9.06 3.52-1.41 6.53-2.92 9.24-4.52l-32.23-9.85c30.52 2.62 51.51-27.41 60.45-43.38-15.56-11.25-15.06-23-7.93-28.12 2.41-1.73 5.52-2.74 9.04-2.74 7.83-.03 17.67 4.71 25.71 17 68.39-12.25 109.06-5.22 122.92 15.67 1.7 2.61 3.01 5.42 3.91 8.64-21.59-5.23-38.56 7.13-38.56 7.13l4.92 15.56 10.55-.5c-6.33-13.96 14.76-16.17 14.96-.8l9.74-.81c-.9 14.87-5.42 31.84-10.44 47.5-1.71 5.23-5.93 9.34-11.25 11.05-21.09 6.33-43.79 8.54-66.89 4.62 9.85 80.64-29.32 96.41-29.32 96.41l10.54-23.3-2-11.15c-3.72 8.64-8.14 15.97-13.16 23.8-30.04 52.78-34.33 109.38-34.69 132.89H304c-8.96-29.03-9.99-59.8 1.95-93.42 0 0 19.39-3.51 34.65-33.94-12.62 54.63-14.17 87.63-11.39 127.36H512V0H0Zm165.03 116.48c-3.28-3.01-2.37-5.85.37-6.54 2.16-.54 5.42.23 8.7 3.24l-9.07 3.3Zm149.66 58.63c-6.53-9.14-2.81-15.7 4.32-15.96 5.62-.21 13.25 3.39 19.78 12.53l-24.1 3.43Z"/></svg>